G04*
G04 #@! TF.GenerationSoftware,Altium Limited,Altium Designer,25.8.1 (18)*
G04*
G04 Layer_Physical_Order=1*
G04 Layer_Color=255*
%FSLAX44Y44*%
%MOMM*%
G71*
G04*
G04 #@! TF.SameCoordinates,DAD3145A-DE86-4D57-9ACD-57DE73CF1F5A*
G04*
G04*
G04 #@! TF.FilePolarity,Positive*
G04*
G01*
G75*
%ADD15R,0.6000X0.6200*%
%ADD16R,0.6200X0.6000*%
G04:AMPARAMS|DCode=17|XSize=0.1778mm|YSize=0.8128mm|CornerRadius=0mm|HoleSize=0mm|Usage=FLASHONLY|Rotation=315.000|XOffset=0mm|YOffset=0mm|HoleType=Round|Shape=Rectangle|*
%AMROTATEDRECTD17*
4,1,4,-0.3502,-0.2245,0.2245,0.3502,0.3502,0.2245,-0.2245,-0.3502,-0.3502,-0.2245,0.0*
%
%ADD17ROTATEDRECTD17*%

G04:AMPARAMS|DCode=18|XSize=0.1778mm|YSize=0.8128mm|CornerRadius=0mm|HoleSize=0mm|Usage=FLASHONLY|Rotation=225.000|XOffset=0mm|YOffset=0mm|HoleType=Round|Shape=Rectangle|*
%AMROTATEDRECTD18*
4,1,4,-0.2245,0.3502,0.3502,-0.2245,0.2245,-0.3502,-0.3502,0.2245,-0.2245,0.3502,0.0*
%
%ADD18ROTATEDRECTD18*%

%ADD19R,0.6000X0.7500*%
%ADD20R,0.6000X0.9000*%
%ADD21R,0.6500X1.6500*%
%ADD22R,0.5000X1.1000*%
%ADD23R,1.2000X0.6000*%
%ADD24R,0.9400X0.7300*%
%ADD25R,0.7300X0.9400*%
%ADD26R,0.8000X1.7000*%
%ADD27R,1.0000X0.8500*%
%ADD28R,1.4500X1.0000*%
%ADD29R,1.2000X1.4000*%
%ADD30R,0.7500X0.6000*%
%ADD31R,1.1250X0.5000*%
%ADD32R,0.7000X0.7000*%
%ADD35P,4.5261X4X90.0*%
%ADD43C,0.7870*%
%ADD51C,0.9910*%
%ADD52C,0.2159*%
%ADD53C,0.1778*%
%ADD54C,0.5080*%
%ADD55C,1.5000*%
%ADD56R,1.5000X1.5000*%
%ADD57R,1.5000X1.5000*%
%ADD58C,0.3810*%
G36*
X215900Y273050D02*
X86360D01*
Y277176D01*
X94466D01*
X95457Y277373D01*
X96297Y277934D01*
X97081Y278719D01*
X97643Y279559D01*
X97840Y280550D01*
X97643Y281541D01*
X97081Y282381D01*
X96241Y282943D01*
X95250Y283140D01*
X94259Y282943D01*
X93419Y282381D01*
X93393Y282355D01*
X86360D01*
Y288290D01*
X104140D01*
X111760Y295910D01*
X215900D01*
Y273050D01*
D02*
G37*
G36*
X227330Y242570D02*
Y233680D01*
X226060Y232410D01*
X215900D01*
X195580Y212090D01*
X186690D01*
X166370Y232410D01*
Y242570D01*
X167640Y243840D01*
X226060D01*
X227330Y242570D01*
D02*
G37*
G36*
X154940Y227330D02*
X180340Y201930D01*
Y200660D01*
X175260Y195580D01*
X165100Y205740D01*
X143510D01*
Y238760D01*
X154940D01*
Y227330D01*
D02*
G37*
G36*
X156845Y174625D02*
X138430Y156210D01*
X128270D01*
Y185420D01*
X146050D01*
X156845Y174625D01*
D02*
G37*
%LPC*%
G36*
X121310Y289670D02*
X120319Y289473D01*
X119479Y288911D01*
X118917Y288071D01*
X118720Y287080D01*
Y285580D01*
X118917Y284589D01*
X119479Y283749D01*
X120319Y283187D01*
X121310Y282990D01*
X122301Y283187D01*
X123141Y283749D01*
X123703Y284589D01*
X123900Y285580D01*
Y287080D01*
X123703Y288071D01*
X123141Y288911D01*
X122301Y289473D01*
X121310Y289670D01*
D02*
G37*
%LPD*%
D15*
X130330Y181569D02*
D03*
X121130D02*
D03*
X130330Y170795D02*
D03*
X121130D02*
D03*
Y160020D02*
D03*
X130330D02*
D03*
X239070Y137209D02*
D03*
X229870D02*
D03*
X148110Y233680D02*
D03*
Y212131D02*
D03*
Y222906D02*
D03*
X280190Y158135D02*
D03*
X270990D02*
D03*
Y147320D02*
D03*
Y168910D02*
D03*
X229870Y126434D02*
D03*
X239070D02*
D03*
X280190Y168910D02*
D03*
Y147320D02*
D03*
X138910Y233680D02*
D03*
Y222906D02*
D03*
Y212131D02*
D03*
X60170Y294640D02*
D03*
X69370D02*
D03*
D16*
X186035Y248920D02*
D03*
Y239720D02*
D03*
X196850D02*
D03*
Y248920D02*
D03*
X207624D02*
D03*
Y239720D02*
D03*
X218399D02*
D03*
X175260D02*
D03*
X275590Y245590D02*
D03*
Y254790D02*
D03*
X237490Y266220D02*
D03*
Y257020D02*
D03*
X175260Y248920D02*
D03*
X218399D02*
D03*
X156870Y276890D02*
D03*
Y267690D02*
D03*
X145440Y276890D02*
D03*
Y267690D02*
D03*
D17*
X153973Y168019D02*
D03*
X156802Y165191D02*
D03*
X199279Y218982D02*
D03*
X224735Y193526D02*
D03*
X176601Y145392D02*
D03*
X151145Y170848D02*
D03*
X202107Y216153D02*
D03*
X204936Y213325D02*
D03*
X207764Y210497D02*
D03*
X210593Y207668D02*
D03*
X213421Y204840D02*
D03*
X216249Y202011D02*
D03*
X219078Y199183D02*
D03*
X221906Y196354D02*
D03*
X227563Y190698D02*
D03*
X230392Y187869D02*
D03*
X233220Y185041D02*
D03*
X236048Y182212D02*
D03*
X187914Y134078D02*
D03*
X185086Y136907D02*
D03*
X182257Y139735D02*
D03*
X179429Y142563D02*
D03*
X173772Y148220D02*
D03*
X170944Y151049D02*
D03*
X168115Y153877D02*
D03*
X165287Y156706D02*
D03*
X162458Y159534D02*
D03*
X159630Y162362D02*
D03*
D18*
X187914Y218982D02*
D03*
X185086Y216153D02*
D03*
X219078Y153877D02*
D03*
X173772Y204840D02*
D03*
X170944Y202011D02*
D03*
X151145Y182212D02*
D03*
X230392Y165191D02*
D03*
X224735Y159534D02*
D03*
X227563Y162362D02*
D03*
X153973Y185041D02*
D03*
X156802Y187869D02*
D03*
X159630Y190698D02*
D03*
X162458Y193526D02*
D03*
X165287Y196354D02*
D03*
X168115Y199183D02*
D03*
X176601Y207668D02*
D03*
X179429Y210497D02*
D03*
X182257Y213325D02*
D03*
X236048Y170848D02*
D03*
X233220Y168019D02*
D03*
X221906Y156706D02*
D03*
X216249Y151049D02*
D03*
X213421Y148220D02*
D03*
X210593Y145392D02*
D03*
X207764Y142563D02*
D03*
X204936Y139735D02*
D03*
X202107Y136907D02*
D03*
X199279Y134078D02*
D03*
D19*
X283210Y124040D02*
D03*
X186690Y61219D02*
D03*
X283210Y135040D02*
D03*
X270510Y124040D02*
D03*
Y135040D02*
D03*
X186690Y50219D02*
D03*
D20*
X130810Y259080D02*
D03*
X111810D02*
D03*
X121310Y287080D02*
D03*
D21*
X57150Y218880D02*
D03*
Y146880D02*
D03*
X69850Y218880D02*
D03*
X82550D02*
D03*
X69850Y146880D02*
D03*
X82550D02*
D03*
X95250Y218880D02*
D03*
Y146880D02*
D03*
D22*
X208280Y289630D02*
D03*
Y266630D02*
D03*
X190500D02*
D03*
X172720D02*
D03*
Y289630D02*
D03*
X190500D02*
D03*
D23*
X251460Y288900D02*
D03*
Y279400D02*
D03*
Y269900D02*
D03*
X276460D02*
D03*
Y279400D02*
D03*
Y288900D02*
D03*
D24*
X225116Y280150D02*
D03*
Y265950D02*
D03*
X292100Y287770D02*
D03*
Y273570D02*
D03*
D25*
X248170Y242570D02*
D03*
X262370D02*
D03*
D26*
X258590Y68580D02*
D03*
X292590D02*
D03*
X258590Y101600D02*
D03*
X292590D02*
D03*
D27*
X95250Y265550D02*
D03*
Y280550D02*
D03*
D28*
X123190Y230480D02*
D03*
Y211480D02*
D03*
D29*
X221370Y97360D02*
D03*
Y75360D02*
D03*
X238370D02*
D03*
Y97360D02*
D03*
D30*
X251040Y256540D02*
D03*
X262040D02*
D03*
D31*
X54420Y243840D02*
D03*
X77660D02*
D03*
D32*
X55620Y278981D02*
D03*
Y267981D02*
D03*
X73920D02*
D03*
Y278981D02*
D03*
D35*
X193597Y176530D02*
D03*
D43*
X85090Y71582D02*
D03*
X97790D02*
D03*
X110490D02*
D03*
X85090Y84283D02*
D03*
X97790D02*
D03*
X110490D02*
D03*
D51*
X72390Y88092D02*
D03*
Y67772D02*
D03*
X123190Y77933D02*
D03*
D52*
X112641Y73271D02*
Y78351D01*
X125442Y91152D02*
Y117600D01*
X112641Y78351D02*
X125442Y91152D01*
X121759Y94355D02*
Y117600D01*
X111498Y84094D02*
X121759Y94355D01*
X125442Y117600D02*
X126776Y118933D01*
Y119380D01*
X120426Y118933D02*
Y119380D01*
Y118933D02*
X121759Y117600D01*
X213421Y148220D02*
X223450Y138191D01*
Y132906D02*
Y138191D01*
Y132906D02*
X229870Y126486D01*
Y126385D02*
Y126486D01*
X245110Y121920D02*
Y131069D01*
X229870Y106680D02*
X245110Y121920D01*
X229870Y84860D02*
Y106680D01*
X186603Y132498D02*
X195580Y123521D01*
X138430Y63500D02*
X195580Y120650D01*
Y123521D01*
X102870Y63500D02*
X138430D01*
X60274Y29794D02*
X69164D01*
X59690Y29210D02*
X60274Y29794D01*
X69164D02*
X102870Y63500D01*
X110490Y29210D02*
Y43180D01*
X146050Y52070D02*
X210820Y116840D01*
X110490Y43180D02*
X119380Y52070D01*
X146050D01*
X140970Y57150D02*
X207010Y123190D01*
X113030Y57150D02*
X140970D01*
X207010Y123190D02*
Y127060D01*
X199992Y134078D02*
X207010Y127060D01*
X85090Y29210D02*
X113030Y57150D01*
X106680Y165100D02*
X121748Y150032D01*
X153670D01*
X106680Y165100D02*
Y179070D01*
X175260Y190500D02*
X187960Y203200D01*
Y207622D01*
X182257Y213325D02*
X187960Y207622D01*
X175260Y190500D02*
Y192038D01*
X168115Y199183D02*
X175260Y192038D01*
X172720Y263630D02*
Y266630D01*
X168170Y259080D02*
X172720Y263630D01*
X149860Y259080D02*
X168170D01*
X78740Y99060D02*
X100330Y120650D01*
X78740Y77470D02*
Y99060D01*
Y77470D02*
X85090Y71120D01*
X238760Y223520D02*
X242570Y227330D01*
X215131Y223520D02*
X238760D01*
X204936Y213325D02*
X215131Y223520D01*
X213284Y227330D02*
X232410D01*
X202107Y216153D02*
X213284Y227330D01*
X302260Y257810D02*
Y274699D01*
X316230Y288668D01*
X265430Y220980D02*
X302260Y257810D01*
X218248Y220980D02*
X265430D01*
X220094Y217170D02*
X270131D01*
X316230Y263269D01*
X304800Y173990D02*
Y190500D01*
X225635Y205740D02*
X289560D01*
X304800Y190500D01*
X298450Y153670D02*
X304800Y147320D01*
X284480Y198120D02*
X298450Y184150D01*
Y153670D02*
Y184150D01*
X304800Y122298D02*
Y147320D01*
X299720Y101600D02*
Y143510D01*
X290830Y152400D02*
X299720Y143510D01*
X290830Y152400D02*
Y180340D01*
X299720Y101600D02*
X306070Y95250D01*
X302260Y107950D02*
Y144780D01*
X295910Y151130D02*
X302260Y144780D01*
Y107950D02*
X315268Y94942D01*
X280670Y190500D02*
X290830Y180340D01*
X238760Y190500D02*
X280670D01*
X306070Y70229D02*
Y95250D01*
Y70229D02*
X316230Y60068D01*
X315268Y86431D02*
X316230Y85469D01*
X315268Y86431D02*
Y94942D01*
X295910Y151130D02*
Y181610D01*
X283210Y194310D02*
X295910Y181610D01*
X236832Y194310D02*
X283210D01*
X304800Y122298D02*
X316230Y110869D01*
X315268Y137231D02*
Y145742D01*
X302260Y158750D02*
X315268Y145742D01*
X302260Y158750D02*
Y186690D01*
X315268Y137231D02*
X316230Y136269D01*
X287020Y201930D02*
X302260Y186690D01*
X227482Y201930D02*
X287020D01*
X233301Y185041D02*
X238760Y190500D01*
X233220Y185041D02*
X233301D01*
X230392Y187869D02*
X236832Y194310D01*
X234950Y198120D02*
X284480D01*
X232410Y195580D02*
X234950Y198120D01*
X232410Y195544D02*
Y195580D01*
X227563Y190698D02*
X232410Y195544D01*
X227563Y190698D02*
Y190698D01*
X221906Y196354D02*
X227482Y201930D01*
X316230Y161668D02*
Y162560D01*
X304800Y173990D02*
X316230Y162560D01*
X219078Y199183D02*
X225635Y205740D01*
X293748Y209550D02*
X316230Y187069D01*
X223788Y209550D02*
X293748D01*
X216249Y202011D02*
X223788Y209550D01*
X314069Y214630D02*
X316230Y212468D01*
X213421Y204840D02*
X223211Y214630D01*
X314069D01*
X210593Y207668D02*
X220094Y217170D01*
X207764Y210497D02*
X218248Y220980D01*
X264160Y147320D02*
X270990D01*
Y158135D02*
Y168910D01*
Y147320D02*
Y158135D01*
X214782Y163830D02*
X221906Y156706D01*
X161290Y240853D02*
X162560Y242123D01*
X161290Y233680D02*
Y240853D01*
X162560Y242123D02*
Y242570D01*
X156210Y242123D02*
Y242570D01*
X157607Y232155D02*
Y240726D01*
X156210Y242123D02*
X157607Y240726D01*
Y232155D02*
X172012Y217750D01*
X176601Y207668D02*
Y207892D01*
X172012Y212481D02*
X176601Y207892D01*
X172012Y212481D02*
Y217750D01*
X179205Y210497D02*
X179429D01*
X175695Y214006D02*
X179205Y210497D01*
X175695Y214006D02*
Y219275D01*
X161290Y233680D02*
X175695Y219275D01*
X230824Y148906D02*
X231140Y148590D01*
X224735Y159534D02*
X230824Y153445D01*
Y148906D02*
Y153445D01*
X237462Y147348D02*
X237490Y147320D01*
X237462Y147348D02*
Y152464D01*
X227563Y162362D02*
X237462Y152464D01*
X111760Y96520D02*
X113030D01*
X104140Y88900D02*
X111760Y96520D01*
X104140Y77470D02*
Y88900D01*
X97790Y71120D02*
X104140Y77470D01*
X85090Y83820D02*
X101600Y100330D01*
X151360Y164958D02*
Y165137D01*
X145078Y158676D02*
X151360Y164958D01*
X144854Y158676D02*
X145078D01*
X150110Y158500D02*
X156802Y165191D01*
Y165191D01*
X153973Y167750D02*
Y168019D01*
X151360Y165137D02*
X153973Y167750D01*
X46990Y119380D02*
X78740D01*
X31750Y134620D02*
X46990Y119380D01*
X29210Y134620D02*
X31750D01*
X78740Y119380D02*
X92710Y133350D01*
X170929D01*
X226060Y58420D02*
X251859D01*
X255669Y61160D02*
X258590Y64080D01*
X251859Y58420D02*
X254599Y61160D01*
X197428Y29788D02*
X226060Y58420D01*
X254599Y61160D02*
X255669D01*
X258590Y64080D02*
Y68580D01*
X187269Y29788D02*
X197428D01*
X186690Y29210D02*
X187269Y29788D01*
X239070Y126334D02*
Y126434D01*
X221370Y108635D02*
X239070Y126334D01*
X221370Y97360D02*
Y108635D01*
X238370Y75360D02*
Y76360D01*
X229870Y84860D02*
X238370Y76360D01*
X239070Y137109D02*
X245110Y131069D01*
X239070Y137109D02*
Y137209D01*
X260350Y120650D02*
X275590Y105410D01*
Y66040D02*
X288290Y53340D01*
X275590Y66040D02*
Y105410D01*
X236048Y182212D02*
X240526Y186690D01*
X250190D02*
X260350Y176530D01*
X240526Y186690D02*
X250190D01*
X260350Y120650D02*
Y176530D01*
X288290Y29210D02*
Y53340D01*
X262890Y29210D02*
X270510Y36830D01*
Y104140D01*
X255270Y119380D02*
X270510Y104140D01*
X255270Y119380D02*
Y151626D01*
X236048Y170848D02*
X255270Y151626D01*
X251460Y92710D02*
X266700Y77470D01*
X251460Y92710D02*
Y149779D01*
X259080Y52070D02*
X266700Y59690D01*
X234950Y52070D02*
X259080D01*
X212090Y29210D02*
X234950Y52070D01*
X266700Y59690D02*
Y77470D01*
X233220Y168019D02*
X251460Y149779D01*
X258590Y68580D02*
Y73080D01*
X247650Y84020D02*
X258590Y73080D01*
X247650Y84020D02*
Y147932D01*
X230392Y165191D02*
X247650Y147932D01*
X156615Y147320D02*
X166000Y156706D01*
X100330Y163830D02*
Y175260D01*
Y163830D02*
X116840Y147320D01*
X156615D01*
X159732Y144780D02*
X168829Y153877D01*
X113030Y144780D02*
X159732D01*
X160865Y140970D02*
X170944Y151049D01*
X109220Y140970D02*
X160865D01*
X105410Y137160D02*
X163425D01*
X174486Y148220D01*
X216249Y150881D02*
Y151049D01*
Y150881D02*
X229870Y137260D01*
Y137160D02*
Y137260D01*
X161290Y29210D02*
Y54610D01*
X218440Y111760D02*
Y132601D01*
X161290Y54610D02*
X218440Y111760D01*
X208478Y142563D02*
X218440Y132601D01*
X210820Y116840D02*
Y128907D01*
X214630Y113030D02*
Y130754D01*
X135890Y29210D02*
X138347Y31667D01*
Y36747D01*
X214630Y113030D01*
X205649Y139735D02*
X214630Y130754D01*
X202821Y136907D02*
X210820Y128907D01*
X29210Y83820D02*
X50800D01*
X96520Y129540D02*
X172720D01*
X50800Y83820D02*
X96520Y129540D01*
X29210Y58420D02*
X97790Y127000D01*
X175893D01*
X185799Y136907D01*
X172720Y129540D02*
X182915Y139735D01*
X182971D01*
X170929Y133350D02*
X180142Y142563D01*
X153670Y150032D02*
X163172Y159534D01*
D53*
X222250Y121920D02*
Y129540D01*
X220980Y130810D02*
X222250Y129540D01*
X220980Y130810D02*
Y135004D01*
X210593Y145392D02*
X220980Y135004D01*
X218440Y189230D02*
X220439D01*
X194310Y213360D02*
X218440Y189230D01*
X194310Y213360D02*
Y214630D01*
X220439Y189230D02*
X224735Y193526D01*
X214205Y158750D02*
X219078Y153877D01*
X208280Y158750D02*
X214205D01*
X200660Y151130D02*
X208280Y158750D01*
X182339Y151130D02*
X200660D01*
X176601Y145392D02*
X182339Y151130D01*
X186690Y25039D02*
Y49110D01*
X57150Y127000D02*
Y146880D01*
X264580Y135040D02*
X270510D01*
X283210D01*
X146110Y187960D02*
X151858Y182212D01*
X86360Y177800D02*
X96520Y187960D01*
X146110D01*
X59511Y170001D02*
X63500Y173990D01*
X59511Y149241D02*
Y170001D01*
X57150Y146880D02*
X59511Y149241D01*
X123190Y220980D02*
Y230480D01*
X160343Y162362D02*
X166891Y168910D01*
X35956Y272654D02*
X69850Y238760D01*
X29210Y287020D02*
X35956Y280273D01*
Y272654D02*
Y280273D01*
X69850Y238760D02*
X97790D01*
X106070Y230480D01*
X123190D01*
X120940Y211480D02*
X123190D01*
X97470Y234950D02*
X120940Y211480D01*
X66435Y234950D02*
X97470D01*
X69850Y207010D02*
Y218880D01*
Y207010D02*
X73660Y203200D01*
X159155D01*
X166000Y196354D01*
X82550Y206690D02*
Y218880D01*
X87630Y200660D02*
X156038D01*
X163172Y193526D01*
X69850Y146880D02*
Y170180D01*
X97790Y198120D01*
X152921D01*
X160343Y190698D01*
X82550Y179070D02*
X99060Y195580D01*
X82550Y146880D02*
Y179070D01*
X99060Y195580D02*
X149804D01*
X157515Y187869D01*
X111760Y191770D02*
X147957D01*
X105981Y211519D02*
X107950Y209550D01*
X97611Y211519D02*
X105981D01*
X95250Y213880D02*
X97611Y211519D01*
X95250Y213880D02*
Y218880D01*
X147957Y191770D02*
X154687Y185041D01*
X57545Y243840D02*
X66435Y234950D01*
X54420Y243840D02*
X57545D01*
X75531D02*
X77660D01*
X73920Y245451D02*
X75531Y243840D01*
X73920Y245451D02*
Y267981D01*
X76351Y265550D01*
X95250D01*
D54*
X280190Y147320D02*
Y178590D01*
X292590Y68580D02*
Y101600D01*
X240030Y99020D02*
Y109220D01*
X238370Y97360D02*
X240030Y99020D01*
X207440Y75360D02*
X221370D01*
X95250Y146880D02*
Y162560D01*
X114300Y170180D02*
X114354Y170235D01*
X120670D01*
X121130Y170695D01*
Y170795D01*
Y181569D01*
Y160020D02*
Y170795D01*
X138910Y212131D02*
Y240820D01*
X111760Y251460D02*
Y259030D01*
X111810Y259080D01*
Y260580D02*
X118920Y267690D01*
X145440D01*
X156870D01*
X283190Y255250D02*
X283210Y255270D01*
X276050Y255250D02*
X283190D01*
X275590Y254790D02*
X276050Y255250D01*
X248170Y242570D02*
Y242730D01*
X247060Y243840D02*
X248170Y242730D01*
X241300Y243840D02*
X247060D01*
X237490Y247650D02*
X241300Y243840D01*
X237490Y247650D02*
Y257020D01*
X175260Y248920D02*
X226060D01*
X225116Y280150D02*
Y289235D01*
X283630Y124460D02*
X293370D01*
X186690Y60110D02*
Y68580D01*
X130810Y249560D02*
Y259080D01*
X57150Y218880D02*
Y231140D01*
X262370Y242570D02*
Y243620D01*
X264340Y245590D01*
X275590D01*
X262205Y242735D02*
X262370Y242570D01*
X262205Y242735D02*
Y256375D01*
X262040Y256540D02*
X262205Y256375D01*
X291050Y273570D02*
X292100D01*
X287840Y270360D02*
X291050Y273570D01*
X276920Y270360D02*
X287840D01*
X276460Y269900D02*
X276920Y270360D01*
X291050Y287770D02*
X292100D01*
X289920Y288900D02*
X291050Y287770D01*
X276460Y288900D02*
X289920D01*
X251250Y269690D02*
X251460Y269900D01*
X251250Y256750D02*
Y269690D01*
X251040Y256540D02*
X251250Y256750D01*
X266240Y278940D02*
Y291290D01*
X238640Y318738D02*
X242833Y314545D01*
X242985D02*
X266240Y291290D01*
X235956Y318738D02*
X238640D01*
X242833Y314545D02*
X242985D01*
X276000Y278940D02*
X276460Y279400D01*
X266240Y278940D02*
X276000D01*
X262040Y274740D02*
X266240Y278940D01*
X262040Y256540D02*
Y274740D01*
X240640Y288900D02*
X251460D01*
X237490Y285750D02*
X240640Y288900D01*
X237490Y266220D02*
Y285750D01*
X237355Y266085D02*
X237490Y266220D01*
X225250Y266085D02*
X237355D01*
X225116Y265950D02*
X225250Y266085D01*
X121310Y285580D02*
Y287080D01*
X47002Y267981D02*
X55620D01*
X46990Y267970D02*
X47002Y267981D01*
X94466Y279766D02*
X95250Y280550D01*
X74704Y279766D02*
X94466D01*
X73920Y278981D02*
X74704Y279766D01*
X49530Y294640D02*
X60170D01*
X69370Y294540D02*
Y294640D01*
Y294540D02*
X69830Y294080D01*
X69930D01*
X73920Y290090D01*
Y278981D02*
Y290090D01*
D55*
X237490Y29210D02*
D03*
X59690D02*
D03*
X85090D02*
D03*
X110490D02*
D03*
X135890D02*
D03*
X161290D02*
D03*
X186690D02*
D03*
X212090D02*
D03*
X262890D02*
D03*
X316230Y237868D02*
D03*
Y60068D02*
D03*
Y85469D02*
D03*
Y110869D02*
D03*
Y136269D02*
D03*
Y161668D02*
D03*
Y187069D02*
D03*
Y212468D02*
D03*
Y263269D02*
D03*
X29210Y109220D02*
D03*
Y287020D02*
D03*
Y261620D02*
D03*
Y236220D02*
D03*
Y210820D02*
D03*
Y185420D02*
D03*
Y160020D02*
D03*
Y134620D02*
D03*
Y83820D02*
D03*
X261355Y318738D02*
D03*
X286756D02*
D03*
X83555D02*
D03*
X108955D02*
D03*
X235956D02*
D03*
X210555D02*
D03*
X185156D02*
D03*
X159755D02*
D03*
X134355D02*
D03*
D56*
X288290Y29210D02*
D03*
X58155Y318738D02*
D03*
D57*
X316230Y288668D02*
D03*
X29210Y58420D02*
D03*
D58*
X126776Y119380D02*
D03*
X120426D02*
D03*
X191770Y160020D02*
D03*
X182880Y168910D02*
D03*
X175260Y177800D02*
D03*
X209550Y176530D02*
D03*
X201930Y184150D02*
D03*
X193040Y193040D02*
D03*
X222250Y121920D02*
D03*
X251460Y279400D02*
D03*
X280190Y178590D02*
D03*
X292590Y85090D02*
D03*
X240030Y109220D02*
D03*
X207440Y75360D02*
D03*
X97790Y84283D02*
D03*
X95250Y162560D02*
D03*
X114300Y170180D02*
D03*
X138910Y240820D02*
D03*
X111760Y251460D02*
D03*
X283210Y255270D02*
D03*
X239395Y245745D02*
D03*
X226060Y248920D02*
D03*
X225116Y289235D02*
D03*
X200621Y151889D02*
D03*
X293331Y125219D02*
D03*
X208280Y231140D02*
D03*
X196850Y230980D02*
D03*
X186690Y68580D02*
D03*
X185420Y230980D02*
D03*
X175260D02*
D03*
X156210Y219710D02*
D03*
X130810Y249560D02*
D03*
X57150Y231140D02*
D03*
X156210Y212090D02*
D03*
X140970Y179070D02*
D03*
Y168910D02*
D03*
X175260Y190500D02*
D03*
X149860Y259080D02*
D03*
X100330Y120650D02*
D03*
X242570Y227330D02*
D03*
X232410D02*
D03*
X264522Y147784D02*
D03*
X214782Y163830D02*
D03*
X162560Y242570D02*
D03*
X156210D02*
D03*
X208280Y266630D02*
D03*
X225116Y265950D02*
D03*
X190500Y266630D02*
D03*
X57150Y127000D02*
D03*
X231140Y148590D02*
D03*
X237490Y147320D02*
D03*
X113030Y96520D02*
D03*
X101600Y100330D02*
D03*
X150110Y158500D02*
D03*
X144854Y158676D02*
D03*
X264580Y135040D02*
D03*
X270510Y124040D02*
D03*
X86360Y177480D02*
D03*
X63500Y173990D02*
D03*
X106680Y179070D02*
D03*
X100330Y175260D02*
D03*
X113030Y144780D02*
D03*
X109220Y140970D02*
D03*
X105410Y137160D02*
D03*
X123190Y220980D02*
D03*
X166891Y168910D02*
D03*
X82550Y206690D02*
D03*
X87630Y200340D02*
D03*
X111760Y191770D02*
D03*
X107950Y209230D02*
D03*
X46990Y267970D02*
D03*
X49530Y294640D02*
D03*
M02*
