G04*
G04 #@! TF.GenerationSoftware,Altium Limited,Altium Designer,25.8.1 (18)*
G04*
G04 Layer_Color=16711935*
%FSLAX44Y44*%
%MOMM*%
G71*
G04*
G04 #@! TF.SameCoordinates,DAD3145A-DE86-4D57-9ACD-57DE73CF1F5A*
G04*
G04*
G04 #@! TF.FilePolarity,Negative*
G04*
G01*
G75*
%ADD50C,1.1032*%
%ADD51C,0.9910*%
D50*
X237490Y29210D02*
D03*
X59690D02*
D03*
X85090D02*
D03*
X110490D02*
D03*
X135890D02*
D03*
X161290D02*
D03*
X186690D02*
D03*
X212090D02*
D03*
X262890D02*
D03*
X288290D02*
D03*
X316230Y237868D02*
D03*
Y60068D02*
D03*
Y85469D02*
D03*
Y110869D02*
D03*
Y136269D02*
D03*
Y161668D02*
D03*
Y187069D02*
D03*
Y212468D02*
D03*
Y263269D02*
D03*
Y288668D02*
D03*
X29210Y109220D02*
D03*
Y287020D02*
D03*
Y261620D02*
D03*
Y236220D02*
D03*
Y210820D02*
D03*
Y185420D02*
D03*
Y160020D02*
D03*
Y134620D02*
D03*
Y83820D02*
D03*
Y58420D02*
D03*
X261355Y318738D02*
D03*
X58155D02*
D03*
X286756D02*
D03*
X83555D02*
D03*
X108955D02*
D03*
X235956D02*
D03*
X210555D02*
D03*
X185156D02*
D03*
X159755D02*
D03*
X134355D02*
D03*
D51*
X72390Y88092D02*
D03*
Y67772D02*
D03*
X123190Y77933D02*
D03*
M02*
