G04*
G04 #@! TF.GenerationSoftware,Altium Limited,Altium Designer,25.8.1 (18)*
G04*
G04 Layer_Color=8388736*
%FSLAX44Y44*%
%MOMM*%
G71*
G04*
G04 #@! TF.SameCoordinates,DAD3145A-DE86-4D57-9ACD-57DE73CF1F5A*
G04*
G04*
G04 #@! TF.FilePolarity,Negative*
G04*
G01*
G75*
G04:AMPARAMS|DCode=17|XSize=0.1778mm|YSize=0.8128mm|CornerRadius=0mm|HoleSize=0mm|Usage=FLASHONLY|Rotation=315.000|XOffset=0mm|YOffset=0mm|HoleType=Round|Shape=Rectangle|*
%AMROTATEDRECTD17*
4,1,4,-0.3502,-0.2245,0.2245,0.3502,0.3502,0.2245,-0.2245,-0.3502,-0.3502,-0.2245,0.0*
%
%ADD17ROTATEDRECTD17*%

G04:AMPARAMS|DCode=18|XSize=0.1778mm|YSize=0.8128mm|CornerRadius=0mm|HoleSize=0mm|Usage=FLASHONLY|Rotation=225.000|XOffset=0mm|YOffset=0mm|HoleType=Round|Shape=Rectangle|*
%AMROTATEDRECTD18*
4,1,4,-0.2245,0.3502,0.3502,-0.2245,0.2245,-0.3502,-0.3502,0.2245,-0.2245,0.3502,0.0*
%
%ADD18ROTATEDRECTD18*%

%ADD26R,0.8000X1.7000*%
%ADD33R,0.8032X0.8232*%
%ADD34R,0.8232X0.8032*%
%ADD35P,4.5261X4X90.0*%
%ADD36R,0.8032X0.9532*%
%ADD37R,0.8032X1.1032*%
%ADD38R,0.8532X1.8532*%
%ADD39R,0.7032X1.3032*%
%ADD40R,1.4032X0.8032*%
%ADD41R,1.1432X0.9332*%
%ADD42R,0.9332X1.1432*%
%ADD43C,0.7870*%
%ADD44R,1.2032X1.0532*%
%ADD45R,1.6532X1.2032*%
%ADD46R,1.4032X1.6032*%
%ADD47R,0.9532X0.8032*%
%ADD48R,1.3282X0.7032*%
%ADD49R,0.9032X0.9032*%
%ADD50C,1.1032*%
%ADD51C,0.9910*%
D17*
X153973Y168019D02*
D03*
X156802Y165191D02*
D03*
X199279Y218982D02*
D03*
X224735Y193526D02*
D03*
X176601Y145392D02*
D03*
X151145Y170848D02*
D03*
X202107Y216153D02*
D03*
X204936Y213325D02*
D03*
X207764Y210497D02*
D03*
X210593Y207668D02*
D03*
X213421Y204840D02*
D03*
X216249Y202011D02*
D03*
X219078Y199183D02*
D03*
X221906Y196354D02*
D03*
X227563Y190698D02*
D03*
X230392Y187869D02*
D03*
X233220Y185041D02*
D03*
X236048Y182212D02*
D03*
X187914Y134078D02*
D03*
X185086Y136907D02*
D03*
X182257Y139735D02*
D03*
X179429Y142563D02*
D03*
X173772Y148220D02*
D03*
X170944Y151049D02*
D03*
X168115Y153877D02*
D03*
X165287Y156706D02*
D03*
X162458Y159534D02*
D03*
X159630Y162362D02*
D03*
D18*
X187914Y218982D02*
D03*
X185086Y216153D02*
D03*
X219078Y153877D02*
D03*
X173772Y204840D02*
D03*
X170944Y202011D02*
D03*
X151145Y182212D02*
D03*
X230392Y165191D02*
D03*
X224735Y159534D02*
D03*
X227563Y162362D02*
D03*
X153973Y185041D02*
D03*
X156802Y187869D02*
D03*
X159630Y190698D02*
D03*
X162458Y193526D02*
D03*
X165287Y196354D02*
D03*
X168115Y199183D02*
D03*
X176601Y207668D02*
D03*
X179429Y210497D02*
D03*
X182257Y213325D02*
D03*
X236048Y170848D02*
D03*
X233220Y168019D02*
D03*
X221906Y156706D02*
D03*
X216249Y151049D02*
D03*
X213421Y148220D02*
D03*
X210593Y145392D02*
D03*
X207764Y142563D02*
D03*
X204936Y139735D02*
D03*
X202107Y136907D02*
D03*
X199279Y134078D02*
D03*
D26*
X258590Y68580D02*
D03*
X292590D02*
D03*
X258590Y101600D02*
D03*
X292590D02*
D03*
D33*
X130330Y181569D02*
D03*
X121130D02*
D03*
X130330Y170795D02*
D03*
X121130D02*
D03*
Y160020D02*
D03*
X130330D02*
D03*
X239070Y137209D02*
D03*
X229870D02*
D03*
X148110Y233680D02*
D03*
Y212131D02*
D03*
Y222906D02*
D03*
X280190Y158135D02*
D03*
X270990D02*
D03*
Y147320D02*
D03*
Y168910D02*
D03*
X229870Y126434D02*
D03*
X239070D02*
D03*
X280190Y168910D02*
D03*
Y147320D02*
D03*
X138910Y233680D02*
D03*
Y222906D02*
D03*
Y212131D02*
D03*
X60170Y294640D02*
D03*
X69370D02*
D03*
D34*
X186035Y248920D02*
D03*
Y239720D02*
D03*
X196850D02*
D03*
Y248920D02*
D03*
X207624D02*
D03*
Y239720D02*
D03*
X218399D02*
D03*
X175260D02*
D03*
X275590Y245590D02*
D03*
Y254790D02*
D03*
X237490Y266220D02*
D03*
Y257020D02*
D03*
X175260Y248920D02*
D03*
X218399D02*
D03*
X156870Y276890D02*
D03*
Y267690D02*
D03*
X145440Y276890D02*
D03*
Y267690D02*
D03*
D35*
X193597Y176530D02*
D03*
D36*
X283210Y124040D02*
D03*
X186690Y61219D02*
D03*
X283210Y135040D02*
D03*
X270510Y124040D02*
D03*
Y135040D02*
D03*
X186690Y50219D02*
D03*
D37*
X130810Y259080D02*
D03*
X111810D02*
D03*
X121310Y287080D02*
D03*
D38*
X57150Y218880D02*
D03*
Y146880D02*
D03*
X69850Y218880D02*
D03*
X82550D02*
D03*
X69850Y146880D02*
D03*
X82550D02*
D03*
X95250Y218880D02*
D03*
Y146880D02*
D03*
D39*
X208280Y289630D02*
D03*
Y266630D02*
D03*
X190500D02*
D03*
X172720D02*
D03*
Y289630D02*
D03*
X190500D02*
D03*
D40*
X251460Y288900D02*
D03*
Y279400D02*
D03*
Y269900D02*
D03*
X276460D02*
D03*
Y279400D02*
D03*
Y288900D02*
D03*
D41*
X225116Y280150D02*
D03*
Y265950D02*
D03*
X292100Y287770D02*
D03*
Y273570D02*
D03*
D42*
X248170Y242570D02*
D03*
X262370D02*
D03*
D43*
X85090Y71582D02*
D03*
X97790D02*
D03*
X110490D02*
D03*
X85090Y84283D02*
D03*
X97790D02*
D03*
X110490D02*
D03*
D44*
X95250Y265550D02*
D03*
Y280550D02*
D03*
D45*
X123190Y230480D02*
D03*
Y211480D02*
D03*
D46*
X221370Y97360D02*
D03*
Y75360D02*
D03*
X238370D02*
D03*
Y97360D02*
D03*
D47*
X251040Y256540D02*
D03*
X262040D02*
D03*
D48*
X54420Y243840D02*
D03*
X77660D02*
D03*
D49*
X55620Y278981D02*
D03*
Y267981D02*
D03*
X73920D02*
D03*
Y278981D02*
D03*
D50*
X237490Y29210D02*
D03*
X59690D02*
D03*
X85090D02*
D03*
X110490D02*
D03*
X135890D02*
D03*
X161290D02*
D03*
X186690D02*
D03*
X212090D02*
D03*
X262890D02*
D03*
X288290D02*
D03*
X316230Y237868D02*
D03*
Y60068D02*
D03*
Y85469D02*
D03*
Y110869D02*
D03*
Y136269D02*
D03*
Y161668D02*
D03*
Y187069D02*
D03*
Y212468D02*
D03*
Y263269D02*
D03*
Y288668D02*
D03*
X29210Y109220D02*
D03*
Y287020D02*
D03*
Y261620D02*
D03*
Y236220D02*
D03*
Y210820D02*
D03*
Y185420D02*
D03*
Y160020D02*
D03*
Y134620D02*
D03*
Y83820D02*
D03*
Y58420D02*
D03*
X261355Y318738D02*
D03*
X58155D02*
D03*
X286756D02*
D03*
X83555D02*
D03*
X108955D02*
D03*
X235956D02*
D03*
X210555D02*
D03*
X185156D02*
D03*
X159755D02*
D03*
X134355D02*
D03*
D51*
X72390Y88092D02*
D03*
Y67772D02*
D03*
X123190Y77933D02*
D03*
M02*
